<svg viewBox="0 0 48 48" width="24" height="24" stroke="currentColor" style="color: rgb(255, 255, 255);"><path fill="currentColor" stroke-width="4" d="m 23.951,2 c -0.32,0.011 -0.628,0.124 -0.879,0.322 L 8.859,13.52 C 7.055,14.941 6,17.114 6,19.41 V 38.5 C 6,39.864 7.136,41 8.5,41 h 8 c 1.364,0 2.5,-1.136 2.5,-2.5 v -12 C 19,26.205 19.205,26 19.5,26 h 9 c 0.295,0 0.5,0.205 0.5,0.5 v 12 c 0,1.364 1.136,2.5 2.5,2.5 h 8 C 40.864,41 42,39.864 42,38.5 V 19.41 c 0,-2.296 -1.055,-4.469 -2.859,-5.89 L 24.928,2.322 C 24.65,2.103 24.304,1.989 23.951,2 Z"></path></svg>