<svg width="493.000000" height="379.000000" viewBox="0 0 493 379" fill="none" xmlns="http://www.w3.org/2000/svg" xmlns:xlink="http://www.w3.org/1999/xlink">
	<desc>
			Created with Pixso.
	</desc>
	<defs>
		<clipPath id="clip83_731">
			<rect width="493.670898" height="378.316895" transform="translate(-0.670898 0.000000)" fill="white" fill-opacity="0"/>
		</clipPath>
	</defs>
	<rect width="493.670898" height="378.316895" transform="translate(-0.670898 0.000000)" fill="#FFFFFF" fill-opacity="0"/>
	<g clip-path="url(#clip83_731)">
		<path d="M451.58 162.49C446.71 143.66 439.22 125.72 429.12 109.17C411.4 80.11 380.09 36.01 344.53 18.82C289.64 -7.71 239.73 -8.98 194.82 32.72C149.91 74.42 122.46 193.2 106.24 213.41C90.02 233.63 41.37 237.42 22.65 269.01C3.94 300.6 9.8 375.15 9.8 375.15L476.78 375.15C476.78 375.15 483.26 285.69 451.58 162.49Z" fill="#C6FF00" fill-opacity="1.000000" fill-rule="nonzero"/>
		<g opacity="0.800000">
			<path d="M451.58 162.49C446.71 143.66 439.22 125.72 429.12 109.17C411.4 80.11 380.09 36.01 344.53 18.82C289.64 -7.71 239.73 -8.98 194.82 32.72C149.91 74.42 122.46 193.2 106.24 213.41C90.02 233.63 41.37 237.42 22.65 269.01C3.94 300.6 9.8 375.15 9.8 375.15L476.78 375.15C476.78 375.15 483.26 285.69 451.58 162.49Z" fill="#FFFFFF" fill-opacity="1.000000" fill-rule="nonzero"/>
		</g>
		<path d="M413.15 117.13C407.54 114.1 405.04 116.62 403.04 114.1C401.05 111.57 408.66 104.87 393.44 98.18C393.44 98.18 392.44 83.77 371.73 83.27C351.02 82.76 356.51 97.67 351.02 101.21C345.41 104.75 343.91 99.19 338.42 102.72C332.81 106.26 335.43 113.47 330.81 114.48C326.32 115.49 320.2 109.93 314.59 113.47C308.98 117 308.98 120.16 306.48 120.16C303.99 120.16 298.87 118.14 295.88 120.16C292.88 122.18 289.26 124.71 289.26 124.71L417.27 124.71C417.14 124.84 418.76 120.29 413.15 117.13Z" fill="#FFFFFF" fill-opacity="1.000000" fill-rule="nonzero"/>
		<g opacity="0.500000">
			<path d="M413.15 117.13C407.54 114.1 405.04 116.62 403.04 114.1C401.05 111.57 408.66 104.87 393.44 98.18C393.44 98.18 392.44 83.77 371.73 83.27C351.02 82.76 356.51 97.67 351.02 101.21C345.41 104.75 343.91 99.19 338.42 102.72C332.81 106.26 335.43 113.47 330.81 114.48C326.32 115.49 320.2 109.93 314.59 113.47C308.98 117 308.98 120.16 306.48 120.16C303.99 120.16 298.87 118.14 295.88 120.16C292.88 122.18 289.26 124.71 289.26 124.71L417.27 124.71C417.14 124.84 418.76 120.29 413.15 117.13Z" fill="#FFFFFF" fill-opacity="1.000000" fill-rule="nonzero"/>
		</g>
		<path d="M260.57 39.04C257.33 37.27 255.83 38.79 254.58 37.27C253.33 35.75 257.82 31.84 248.84 27.92C248.84 27.92 248.22 19.45 235.99 19.08C223.64 18.82 227.01 27.54 223.64 29.69C220.4 31.84 219.4 28.43 216.16 30.57C212.91 32.72 214.41 36.89 211.66 37.52C208.92 38.16 205.43 34.74 202.06 36.89C198.81 39.04 198.81 40.81 197.32 40.81C195.82 40.81 192.83 39.55 191.08 40.81C189.33 42.07 187.21 43.59 187.21 43.59L263.06 43.59C262.94 43.59 263.81 40.81 260.57 39.04Z" fill="#FFFFFF" fill-opacity="1.000000" fill-rule="nonzero"/>
		<g opacity="0.500000">
			<path d="M260.57 39.04C257.33 37.27 255.83 38.79 254.58 37.27C253.33 35.75 257.82 31.84 248.84 27.92C248.84 27.92 248.22 19.45 235.99 19.08C223.64 18.82 227.01 27.54 223.64 29.69C220.4 31.84 219.4 28.43 216.16 30.57C212.91 32.72 214.41 36.89 211.66 37.52C208.92 38.16 205.43 34.74 202.06 36.89C198.81 39.04 198.81 40.81 197.32 40.81C195.82 40.81 192.83 39.55 191.08 40.81C189.33 42.07 187.21 43.59 187.21 43.59L263.06 43.59C262.94 43.59 263.81 40.81 260.57 39.04Z" fill="#FFFFFF" fill-opacity="1.000000" fill-rule="nonzero"/>
		</g>
		<path d="M222.02 169.69C218.78 167.93 217.28 169.44 216.03 167.93C214.78 166.41 219.27 162.49 210.29 158.58C210.29 158.58 209.67 150.11 197.44 149.73C185.09 149.48 188.46 158.2 185.09 160.34C181.85 162.49 180.85 159.08 177.61 161.23C174.36 163.38 175.86 167.55 173.11 168.18C170.37 168.81 166.88 165.4 163.51 167.55C160.26 169.69 160.26 171.46 158.77 171.46C157.27 171.46 154.28 170.2 152.53 171.46C150.78 172.73 148.66 174.24 148.66 174.24L224.51 174.24C224.39 174.24 225.39 171.59 222.02 169.69Z" fill="#FFFFFF" fill-opacity="1.000000" fill-rule="nonzero"/>
		<g opacity="0.500000">
			<path d="M222.02 169.69C218.78 167.93 217.28 169.44 216.03 167.93C214.78 166.41 219.27 162.49 210.29 158.58C210.29 158.58 209.67 150.11 197.44 149.73C185.09 149.48 188.46 158.2 185.09 160.34C181.85 162.49 180.85 159.08 177.61 161.23C174.36 163.38 175.86 167.55 173.11 168.18C170.37 168.81 166.88 165.4 163.51 167.55C160.26 169.69 160.26 171.46 158.77 171.46C157.27 171.46 154.28 170.2 152.53 171.46C150.78 172.73 148.66 174.24 148.66 174.24L224.51 174.24C224.39 174.24 225.39 171.59 222.02 169.69Z" fill="#FFFFFF" fill-opacity="1.000000" fill-rule="nonzero"/>
		</g>
		<path d="M14.54 374.77L164.38 183.85C168 179.3 174.86 179.3 178.35 184.1L271.67 310.33L359 165.52C362.5 159.59 371.11 159.84 374.35 165.9L486.38 373.76L14.54 374.77Z" fill="#C6FF00" fill-opacity="1.000000" fill-rule="nonzero"/>
		<g opacity="0.500000">
			<path d="M14.54 374.77L164.38 183.85C168 179.3 174.86 179.3 178.35 184.1L271.67 310.33L359 165.52C362.5 159.59 371.11 159.84 374.35 165.9L486.38 373.76L14.54 374.77Z" fill="#FFFFFF" fill-opacity="1.000000" fill-rule="nonzero"/>
		</g>
		<mask id="mask83_749" mask-type="alpha" maskUnits="userSpaceOnUse" x="14.549683" y="161.214355" width="471.838043" height="213.564514">
			<path d="M14.54 374.77L164.38 183.85C168 179.3 174.86 179.3 178.35 184.1L271.67 310.33L359 165.52C362.5 159.59 371.11 159.84 374.35 165.9L486.38 373.76L14.54 374.77Z" fill="#000000" fill-opacity="1.000000" fill-rule="nonzero"/>
		</mask>
		<g mask="url(#mask83_749)">
			<g opacity="0.200000">
				<path d="M174.61 181.19L225.26 374.4L319.95 374.27L178.48 184.1C177.48 182.71 176.11 181.7 174.61 181.19Z" fill="#000000" fill-opacity="1.000000" fill-rule="nonzero"/>
				<path d="M374.47 166.03C372.6 162.62 369.23 161.1 365.87 161.36L439.72 373.89L486.51 373.76L374.47 166.03Z" fill="#000000" fill-opacity="1.000000" fill-rule="nonzero"/>
			</g>
		</g>
		<mask id="mask83_755" mask-type="alpha" maskUnits="userSpaceOnUse" x="14.549683" y="161.214355" width="471.838043" height="213.564514">
			<path d="M14.54 374.77L164.38 183.85C168 179.3 174.86 179.3 178.35 184.1L271.67 310.33L359 165.52C362.5 159.59 371.11 159.84 374.35 165.9L486.38 373.76L14.54 374.77Z" fill="#000000" fill-opacity="1.000000" fill-rule="nonzero"/>
		</mask>
		<g mask="url(#mask83_755)">
			<g opacity="0.200000">
				<path d="M108.36 373.64L114.1 340.91L93.27 373.64L108.36 373.64Z" fill="#000000" fill-opacity="1.000000" fill-rule="nonzero"/>
			</g>
		</g>
		<path d="M375.72 374.27L439.97 374.27C438.73 366.31 433.74 367.7 432.99 355.32C432.61 349.12 438.35 341.42 437.85 333.2C437.48 326.51 430.87 319.56 430.37 311.85C429.87 304.9 435.48 297.19 434.98 289.74C434.48 282.66 427.87 275.84 427.25 268.51C426.62 261.3 432.11 253.6 431.49 246.27C430.87 239.07 424.13 232.37 423.38 225.17C422.63 217.84 428 209.88 427.12 202.93C426.25 195.47 419.26 189.03 418.39 182.08C417.39 174.37 422.26 166.28 421.13 159.59C419.76 151.5 412.28 145.56 410.65 139.62C407.79 128.5 408.16 117.76 404.67 117C400.92 116.25 400.17 126.73 397.31 138.48C395.93 144.42 388.57 150.36 387.45 158.45C386.45 165.02 391.57 172.98 390.82 180.56C390.07 187.38 383.33 193.96 382.58 201.41C381.96 208.36 387.45 216.07 386.95 223.4C386.45 230.47 379.84 237.3 379.34 244.5C378.84 251.7 384.58 259.28 384.21 266.36C383.83 273.69 377.34 280.51 376.97 287.59C376.6 295.04 382.46 302.5 382.08 309.45C381.84 317.03 375.35 324.1 375.22 330.8C374.97 338.89 380.84 346.34 380.59 352.54C380.21 365.93 374.1 363.15 373.98 373.89L375.72 374.27Z" fill="#BAEF00" fill-opacity="1.000000" fill-rule="nonzero"/>
		<path d="" fill="#BAEF00" fill-opacity="1.000000" fill-rule="nonzero"/>
		<path d="M403.29 138.74L403.29 371.24" stroke="#263238" stroke-opacity="1.000000" stroke-width="1.000000"/>
		<path d="M413.27 163.12L402.79 172.22L394.31 160.72" fill="#BAEF00" fill-opacity="1.000000" fill-rule="nonzero"/>
		<path d="M413.27 163.12L402.79 172.22L394.31 160.72" stroke="#263238" stroke-opacity="1.000000" stroke-width="1.000000"/>
		<path d="M413.27 203.56L402.79 212.66L394.31 201.16" fill="#BAEF00" fill-opacity="1.000000" fill-rule="nonzero"/>
		<path d="M413.27 203.56L402.79 212.66L394.31 201.16" stroke="#263238" stroke-opacity="1.000000" stroke-width="1.000000"/>
		<path d="M413.27 241.59L402.79 250.82L394.31 239.19" fill="#BAEF00" fill-opacity="1.000000" fill-rule="nonzero"/>
		<path d="M413.27 241.59L402.79 250.82L394.31 239.19" stroke="#263238" stroke-opacity="1.000000" stroke-width="1.000000"/>
		<path d="M413.27 286.96L402.79 296.05L394.31 284.55" fill="#BAEF00" fill-opacity="1.000000" fill-rule="nonzero"/>
		<path d="M413.27 286.96L402.79 296.05L394.31 284.55" stroke="#263238" stroke-opacity="1.000000" stroke-width="1.000000"/>
		<path d="M413.27 332.7L402.79 341.79L394.31 330.3" fill="#BAEF00" fill-opacity="1.000000" fill-rule="nonzero"/>
		<path d="M413.27 332.7L402.79 341.79L394.31 330.3" stroke="#263238" stroke-opacity="1.000000" stroke-width="1.000000"/>
		<path d="M308.1 374.27L363.87 374.27C362.75 367.32 358.38 368.58 357.88 357.84C357.63 352.41 362.5 345.84 362.12 338.76C361.75 332.95 356.14 327.01 355.64 320.31C355.26 314.25 360.13 307.55 359.63 301.11C359.13 294.92 353.39 289.1 352.89 282.66C352.39 276.47 357.13 269.64 356.63 263.45C356.13 257.13 350.27 251.32 349.65 245.13C349.02 238.81 353.64 231.86 352.89 225.8C352.14 219.35 346.15 213.79 345.28 207.73C344.41 201.03 348.65 193.96 347.65 188.27C346.4 181.19 339.92 176.14 338.67 170.96C336.17 161.36 336.42 152 333.43 151.37C330.19 150.74 329.56 159.84 327.07 170.07C325.82 175.25 319.58 180.44 318.46 187.38C317.58 193.07 322.07 200.02 321.33 206.59C320.7 212.53 314.84 218.22 314.22 224.66C313.72 230.73 318.46 237.42 317.96 243.74C317.46 249.93 311.85 255.74 311.35 262.06C310.97 268.25 315.84 274.82 315.59 281.02C315.21 287.33 309.6 293.27 309.35 299.46C309.1 305.91 314.09 312.35 313.84 318.42C313.59 324.99 308.1 331.05 307.85 336.87C307.6 343.94 312.72 350.39 312.59 355.69C312.22 367.32 306.98 364.92 306.85 374.27L308.1 374.27Z" fill="#BAEF00" fill-opacity="1.000000" fill-rule="nonzero"/>
		<path d="" fill="#BAEF00" fill-opacity="1.000000" fill-rule="nonzero"/>
		<path d="M331.93 169.95L331.93 371.62" stroke="#263238" stroke-opacity="1.000000" stroke-width="1.000000"/>
		<path d="M340.66 191.18L331.56 199.01L324.2 189.03" fill="#BAEF00" fill-opacity="1.000000" fill-rule="nonzero"/>
		<path d="M340.66 191.18L331.56 199.01L324.2 189.03" stroke="#263238" stroke-opacity="1.000000" stroke-width="1.000000"/>
		<path d="M340.66 226.18L331.56 234.14L324.2 224.16" fill="#BAEF00" fill-opacity="1.000000" fill-rule="nonzero"/>
		<path d="M340.66 226.18L331.56 234.14L324.2 224.16" stroke="#263238" stroke-opacity="1.000000" stroke-width="1.000000"/>
		<path d="M340.66 259.28L331.56 267.24L324.2 257.13" fill="#BAEF00" fill-opacity="1.000000" fill-rule="nonzero"/>
		<path d="M340.66 259.28L331.56 267.24L324.2 257.13" stroke="#263238" stroke-opacity="1.000000" stroke-width="1.000000"/>
		<path d="M340.66 298.58L331.56 306.41L324.2 296.43" fill="#BAEF00" fill-opacity="1.000000" fill-rule="nonzero"/>
		<path d="M340.66 298.58L331.56 306.41L324.2 296.43" stroke="#263238" stroke-opacity="1.000000" stroke-width="1.000000"/>
		<path d="M340.66 338.26L331.56 346.22L324.2 336.11" fill="#BAEF00" fill-opacity="1.000000" fill-rule="nonzero"/>
		<path d="M340.66 338.26L331.56 346.22L324.2 336.11" stroke="#263238" stroke-opacity="1.000000" stroke-width="1.000000"/>
		<path d="M31.39 374.27L87.15 374.27C86.03 367.32 81.67 368.58 81.17 357.84C80.92 352.41 85.78 345.84 85.41 338.76C85.03 332.95 79.42 327.01 78.92 320.31C78.55 314.25 83.41 307.55 82.91 301.11C82.41 294.92 76.67 289.1 76.18 282.66C75.68 276.47 80.42 269.64 79.92 263.45C79.42 257.13 73.56 251.32 72.93 245.13C72.31 238.81 76.92 231.86 76.18 225.8C75.43 219.35 69.44 213.79 68.57 207.73C67.69 201.03 71.93 193.96 70.94 188.27C69.69 181.19 63.2 176.14 61.95 170.96C59.46 161.36 59.71 152 56.71 151.37C53.47 150.74 52.85 159.84 50.35 170.07C49.1 175.25 42.86 180.44 41.74 187.38C40.87 193.07 45.36 200.02 44.61 206.59C43.99 212.53 38.12 218.22 37.5 224.66C37 230.73 41.74 237.42 41.24 243.74C40.74 249.93 35.13 255.74 34.63 262.06C34.26 268.25 39.12 274.82 38.87 281.02C38.5 287.33 32.88 293.27 32.63 299.46C32.39 305.91 37.38 312.35 37.13 318.42C36.88 324.99 31.39 331.05 31.14 336.87C30.89 343.94 36 350.39 35.88 355.69C35.5 367.32 30.26 364.92 30.14 374.27L31.39 374.27Z" fill="#BAEF00" fill-opacity="1.000000" fill-rule="nonzero"/>
		<path d="M55.34 169.95L55.34 371.62" stroke="#263238" stroke-opacity="1.000000" stroke-width="1.000000"/>
		<path d="M64.07 191.18L54.97 199.01L47.48 189.03" stroke="#263238" stroke-opacity="1.000000" stroke-width="1.000000"/>
		<path d="M64.07 226.18L54.97 234.14L47.48 224.16" stroke="#263238" stroke-opacity="1.000000" stroke-width="1.000000"/>
		<path d="M64.07 259.28L54.97 267.24L47.48 257.13" stroke="#263238" stroke-opacity="1.000000" stroke-width="1.000000"/>
		<path d="M64.07 298.58L54.97 306.41L47.48 296.43" stroke="#263238" stroke-opacity="1.000000" stroke-width="1.000000"/>
		<path d="M64.07 338.26L54.97 346.22L47.48 336.11" stroke="#263238" stroke-opacity="1.000000" stroke-width="1.000000"/>
		<path d="M368.48 315.66C374.46 341.77 358.42 367.84 332.64 373.89C306.87 379.95 281.13 363.7 275.15 337.59C269.17 311.49 285.22 285.42 310.99 279.36C336.76 273.31 362.5 289.56 368.48 315.66Z" fill="#263238" fill-opacity="1.000000" fill-rule="evenodd"/>
		<path d="M361.27 310.49C370.07 332.55 359.56 357.67 337.77 366.59C315.99 375.5 291.19 364.85 282.39 342.79C273.58 320.73 284.1 295.61 305.88 286.69C327.66 277.77 352.46 288.43 361.27 310.49Z" fill="#FFFFFF" fill-opacity="1.000000" fill-rule="evenodd"/>
		<path d="M321.83 364.16C337.05 364.16 350.02 354.94 355.76 341.67" stroke="#263238" stroke-opacity="1.000000" stroke-width="1.000000" stroke-linejoin="round" stroke-linecap="round"/>
		<path d="M321.83 288.98C307.85 288.98 295.75 296.68 289.39 308.18" stroke="#263238" stroke-opacity="1.000000" stroke-width="1.000000" stroke-linejoin="round" stroke-linecap="round"/>
		<path d="M321.83 292.77C309.23 292.77 298.37 299.72 292.63 310.08" stroke="#263238" stroke-opacity="1.000000" stroke-width="1.000000" stroke-linejoin="round" stroke-linecap="round"/>
		<path d="M321.2 360.37C321.45 360.37 321.58 360.37 321.83 360.37C335.55 360.37 347.28 352.03 352.52 340.03" stroke="#263238" stroke-opacity="1.000000" stroke-width="1.000000" stroke-linejoin="round" stroke-linecap="round"/>
		<path d="M321.83 296.94C310.85 296.94 301.24 303.13 296.25 312.23" stroke="#263238" stroke-opacity="1.000000" stroke-width="1.000000" stroke-linejoin="round" stroke-linecap="round"/>
		<path d="M321.83 356.2C333.68 356.2 344.03 349 348.52 338.64" stroke="#263238" stroke-opacity="1.000000" stroke-width="1.000000" stroke-linejoin="round" stroke-linecap="round"/>
		<path d="M321.83 301.61C312.59 301.61 304.48 306.79 300.24 314.38" stroke="#263238" stroke-opacity="1.000000" stroke-width="1.000000" stroke-linejoin="round" stroke-linecap="round"/>
		<path d="M321.83 351.65C331.68 351.65 340.17 345.84 344.16 337.25" stroke="#263238" stroke-opacity="1.000000" stroke-width="1.000000" stroke-linejoin="round" stroke-linecap="round"/>
		<path d="M203.89 292.33C222.6 311.28 222.6 342 203.89 360.95C185.19 379.9 154.85 379.9 136.14 360.95C117.44 342 117.44 311.28 136.14 292.33C154.85 273.38 185.19 273.38 203.89 292.33Z" fill="#263238" fill-opacity="1.000000" fill-rule="evenodd"/>
		<path d="M186.67 286.98C208.3 296.28 218.39 321.57 209.21 343.48C200.02 365.38 175.05 375.6 153.42 366.3C131.79 357 121.7 331.71 130.88 309.8C140.07 287.9 165.04 277.68 186.67 286.98Z" fill="#FFFFFF" fill-opacity="1.000000" fill-rule="evenodd"/>
		<path d="M169.99 364.16C185.22 364.16 198.19 354.94 203.93 341.67" stroke="#263238" stroke-opacity="1.000000" stroke-width="1.000000" stroke-linejoin="round" stroke-linecap="round"/>
		<path d="M169.99 288.98C156.02 288.98 143.92 296.68 137.56 308.18" stroke="#263238" stroke-opacity="1.000000" stroke-width="1.000000" stroke-linejoin="round" stroke-linecap="round"/>
		<path d="M169.99 292.77C157.39 292.77 146.54 299.72 140.8 310.08" stroke="#263238" stroke-opacity="1.000000" stroke-width="1.000000" stroke-linejoin="round" stroke-linecap="round"/>
		<path d="M169.37 360.37C169.62 360.37 169.75 360.37 169.99 360.37C183.72 360.37 195.45 352.03 200.69 340.03" stroke="#263238" stroke-opacity="1.000000" stroke-width="1.000000" stroke-linejoin="round" stroke-linecap="round"/>
		<path d="M169.99 296.94C159.02 296.94 149.41 303.13 144.42 312.23" stroke="#263238" stroke-opacity="1.000000" stroke-width="1.000000" stroke-linejoin="round" stroke-linecap="round"/>
		<path d="M169.99 356.2C181.85 356.2 192.2 349 196.69 338.64" stroke="#263238" stroke-opacity="1.000000" stroke-width="1.000000" stroke-linejoin="round" stroke-linecap="round"/>
		<path d="M169.99 301.61C160.76 301.61 152.65 306.79 148.41 314.38" stroke="#263238" stroke-opacity="1.000000" stroke-width="1.000000" stroke-linejoin="round" stroke-linecap="round"/>
		<path d="M169.99 351.65C179.85 351.65 188.33 345.84 192.33 337.25" stroke="#263238" stroke-opacity="1.000000" stroke-width="1.000000" stroke-linejoin="round" stroke-linecap="round"/>
		<path d="M283.28 166.41L277.54 140.5C277.54 140.5 270.68 137.98 265.19 141.01C260.69 143.54 244.85 165.9 239.49 173.61C239.24 173.36 239.11 173.23 239.11 173.23C239.11 173.23 238.49 172.22 237.74 173.23C237.74 173.23 234 176.64 234.12 177.78C234.12 178.03 234.74 178.79 235.49 179.8L204.68 211.39C204.68 211.39 196.32 211.52 194.82 212.28C193.32 213.04 193.32 213.16 193.32 216.07C193.32 218.85 193.7 221.5 194.2 221.63C194.7 221.75 198.07 222.51 198.44 221.5C198.81 220.36 197.57 218.34 197.57 218.34C197.57 218.34 198.44 215.94 200.31 216.7C202.18 217.46 203.68 219.86 206.05 218.97C208.42 218.09 210.54 214.05 210.54 214.05L243.85 189.03C244.85 190.04 245.6 190.8 245.85 190.92C247.1 191.68 251.21 188.52 251.09 187.01L251.09 186.88L283.28 166.41Z" fill="#263238" fill-opacity="1.000000" fill-rule="nonzero"/>
		<path d="M203.8 234.01C203.18 234.01 202.68 233.76 202.43 233.13L194.7 219.35C194.2 218.6 194.57 217.58 195.32 217.08C196.07 216.57 197.07 216.95 197.57 217.71L205.3 231.48C205.8 232.24 205.43 233.25 204.68 233.76C204.3 233.88 204.05 234.01 203.8 234.01Z" fill="#FFFFFF" fill-opacity="1.000000" fill-rule="nonzero"/>
		<path d="M202.43 233.13L194.7 219.35C194.2 218.6 194.57 217.58 195.32 217.08C196.07 216.57 197.07 216.95 197.57 217.71L205.3 231.48C205.8 232.24 205.43 233.25 204.68 233.76C204.3 233.88 204.05 234.01 203.8 234.01C203.18 234.01 202.68 233.76 202.43 233.13Z" stroke="#263238" stroke-opacity="1.000000" stroke-width="1.000000" stroke-linejoin="round"/>
		<path d="M232 178.29L200.06 211.14C200.06 211.14 191.7 211.27 190.21 212.02C188.71 212.78 188.71 212.91 188.71 215.82C188.71 218.6 189.08 221.25 189.58 221.38C190.08 221.5 193.45 222.26 193.82 221.25C194.2 220.11 192.95 218.09 192.95 218.09C192.95 218.09 193.82 215.69 195.7 216.45C197.57 217.21 199.06 219.61 201.43 218.72C203.8 217.84 205.93 213.79 205.93 213.79L240.61 187.76L232 178.29Z" fill="#FFFFFF" fill-opacity="1.000000" fill-rule="nonzero"/>
		<path d="M200.06 211.14C200.06 211.14 191.7 211.27 190.21 212.02C188.71 212.78 188.71 212.91 188.71 215.82C188.71 218.6 189.08 221.25 189.58 221.38C190.08 221.5 193.45 222.26 193.82 221.25C194.2 220.11 192.95 218.09 192.95 218.09C192.95 218.09 193.82 215.69 195.7 216.45C197.57 217.21 199.06 219.61 201.43 218.72C203.8 217.84 205.93 213.79 205.93 213.79L240.61 187.76L232 178.29L200.06 211.14Z" stroke="#263238" stroke-opacity="1.000000" stroke-width="1.000000" stroke-linejoin="round"/>
		<path d="M199.94 218.22C199.94 216.07 198.19 214.3 196.07 214.3C193.95 214.3 192.2 216.07 192.2 218.22C192.2 220.36 193.95 222.13 196.07 222.13C198.19 222.01 199.94 220.36 199.94 218.22Z" fill="#263238" fill-opacity="1.000000" fill-rule="nonzero"/>
		<path d="M300.37 221.75C300.37 221.75 295.38 224.28 289.39 224.79C283.4 225.29 279.28 224.53 280.66 228.96C282.03 233.38 291.39 234.26 298.25 232.62C305.11 230.98 308.35 228.45 307.6 224.03C306.6 219.48 302.49 220.87 300.37 221.75Z" fill="#263238" fill-opacity="1.000000" fill-rule="nonzero"/>
		<path d="M278.66 212.02C278.66 212.02 236.37 243.74 235.24 250.44C234.12 257.13 241.86 307.68 241.86 307.68L248.47 309.95C248.47 309.95 252.09 264.84 255.58 256.25C259.2 247.66 294.63 227.31 295.38 217.08C296.25 206.72 287.39 206.72 278.66 212.02Z" fill="#263238" fill-opacity="1.000000" fill-rule="nonzero"/>
		<path d="M241.86 307.68C241.86 307.68 239.11 308.56 235.49 308.82C231.88 309.07 227.01 307.17 227.01 308.56C227.01 309.95 233 315.26 236.12 315.51C239.11 315.76 242.98 316.02 242.98 316.02L243.1 318.17L247.1 319.3L248.47 309.83L241.86 307.68Z" fill="#263238" fill-opacity="1.000000" fill-rule="nonzero"/>
		<path d="M243.12 318.2L230.1 311.52L228.24 315.25L241.26 321.92L243.12 318.2Z" fill="#FFFFFF" fill-opacity="1.000000" fill-rule="nonzero"/>
		<path d="M243.12 318.2L241.26 321.92L228.24 315.25L230.1 311.52L243.12 318.2Z" stroke="#263238" stroke-opacity="1.000000" stroke-width="1.000000" stroke-linejoin="round"/>
		<path d="M235.62 316.65L252.34 328.27L253.96 324.23L236.12 315.51L235.62 316.65Z" fill="#FFFFFF" fill-opacity="1.000000" fill-rule="nonzero"/>
		<path d="M252.34 328.27L253.96 324.23L236.12 315.51L235.62 316.65L252.34 328.27Z" stroke="#263238" stroke-opacity="1.000000" stroke-width="1.000000" stroke-linejoin="round"/>
		<path d="M322.7 323.85L289.26 238.69C289.14 238.43 289.01 238.31 288.89 238.05L290.64 233.38C291.01 232.49 290.51 231.61 289.64 231.23C288.76 230.85 287.89 231.36 287.52 232.24L283.65 242.6L203.18 242.6C204.68 236.66 205.3 233 205.43 232.87C205.55 231.99 205.05 231.1 204.18 230.85C203.31 230.73 202.43 231.23 202.18 232.12C202.06 232.62 190.7 288.85 168.62 325.87C168.12 326.63 168.37 327.64 169.12 328.15C169.37 328.27 169.62 328.4 169.99 328.4C170.49 328.4 171.12 328.15 171.37 327.64C183.09 307.93 191.83 283.04 197.44 263.71L252.09 329.16C252.21 329.41 252.34 329.66 252.46 329.92C253.08 330.8 254.08 331.31 255.08 331.31L255.21 331.31L319.71 328.53C320.7 328.53 321.7 327.9 322.32 327.01C323.07 326 323.07 324.86 322.7 323.85ZM202.31 245.76L282.4 245.76L252.96 324.74L198.69 259.66C200.19 254.48 201.31 249.81 202.31 245.76ZM255.21 327.9L287.14 242.48L319.58 325.12L255.21 327.9Z" fill="#FFFFFF" fill-opacity="1.000000" fill-rule="nonzero"/>
		<path d="M289.26 238.69C289.14 238.43 289.01 238.31 288.89 238.05L290.64 233.38C291.01 232.49 290.51 231.61 289.64 231.23C288.76 230.85 287.89 231.36 287.52 232.24L283.65 242.6L203.18 242.6C204.68 236.66 205.3 233 205.43 232.87C205.55 231.99 205.05 231.1 204.18 230.85C203.31 230.73 202.43 231.23 202.18 232.12C202.06 232.62 190.7 288.85 168.62 325.87C168.12 326.63 168.37 327.64 169.12 328.15C169.37 328.27 169.62 328.4 169.99 328.4C170.49 328.4 171.12 328.15 171.37 327.64C183.09 307.93 191.83 283.04 197.44 263.71L252.09 329.16C252.21 329.41 252.34 329.66 252.46 329.92C253.08 330.8 254.08 331.31 255.08 331.31L255.21 331.31L319.71 328.53C320.7 328.53 321.7 327.9 322.32 327.01C323.07 326 323.07 324.86 322.7 323.85L289.26 238.69ZM282.4 245.76L252.96 324.74L198.69 259.66C200.19 254.48 201.31 249.81 202.31 245.76L282.4 245.76ZM287.14 242.48L319.58 325.12L255.21 327.9L287.14 242.48Z" stroke="#263238" stroke-opacity="1.000000" stroke-width="1.000000" stroke-linejoin="round"/>
		<path d="M207.55 232.37C207.55 230.22 205.8 228.45 203.68 228.45C201.56 228.45 199.81 230.22 199.81 232.37C199.81 234.52 201.56 236.29 203.68 236.29C205.93 236.16 207.55 234.52 207.55 232.37Z" fill="#FFFFFF" fill-opacity="1.000000" fill-rule="nonzero"/>
		<path d="M203.68 228.45C201.56 228.45 199.81 230.22 199.81 232.37C199.81 234.52 201.56 236.29 203.68 236.29C205.93 236.16 207.55 234.52 207.55 232.37C207.55 230.22 205.8 228.45 203.68 228.45Z" stroke="#263238" stroke-opacity="1.000000" stroke-width="1.000000" stroke-linejoin="round"/>
		<path d="M175.48 326.63C175.48 323.6 173.11 321.07 169.99 321.07C166.88 321.07 164.51 323.47 164.51 326.63C164.51 329.66 166.88 332.19 169.99 332.19C173.11 332.19 175.48 329.66 175.48 326.63Z" fill="#263238" fill-opacity="1.000000" fill-rule="nonzero"/>
		<path d="M326.57 326.63C326.57 323.6 324.2 321.07 321.08 321.07C318.08 321.07 315.59 323.47 315.59 326.63C315.59 329.66 317.96 332.19 321.08 332.19C324.2 332.07 326.57 329.66 326.57 326.63Z" fill="#263238" fill-opacity="1.000000" fill-rule="nonzero"/>
		<path d="M265.44 326.63C265.44 320.31 260.44 315.26 254.21 315.26C247.97 315.26 242.98 320.31 242.98 326.63C242.98 332.95 247.97 338 254.21 338C260.44 338 265.44 332.82 265.44 326.63Z" fill="#263238" fill-opacity="1.000000" fill-rule="nonzero"/>
		<path d="M271.3 328.78L253.96 324.1C252.59 323.73 251.21 324.61 250.84 325.87C250.46 327.39 251.46 328.91 252.96 329.03L272.42 331.69L271.3 328.78Z" fill="#FFFFFF" fill-opacity="1.000000" fill-rule="nonzero"/>
		<path d="M253.96 324.1C252.59 323.73 251.21 324.61 250.84 325.87C250.46 327.39 251.46 328.91 252.96 329.03L272.42 331.69L271.3 328.78L253.96 324.1Z" stroke="#263238" stroke-opacity="1.000000" stroke-width="1.000000" stroke-linejoin="round"/>
		<path d="M278.65 321.81L268.83 332.75L271.88 335.56L281.7 324.62L278.65 321.81Z" fill="#FFFFFF" fill-opacity="1.000000" fill-rule="nonzero"/>
		<path d="M278.65 321.81L281.7 324.62L271.88 335.56L268.83 332.75L278.65 321.81Z" stroke="#263238" stroke-opacity="1.000000" stroke-width="1.000000" stroke-linejoin="round"/>
		<path d="M278.41 210.89C278.41 210.89 245.22 241.97 243.6 250.56C241.98 259.16 275.67 314.88 275.67 314.88L282.28 312.61C282.28 312.61 263.31 263.71 265.81 260.04C268.3 256.38 312.59 226.05 319.21 215.82C325.82 205.58 322.07 195.22 317.09 190.54C312.1 185.87 278.41 210.89 278.41 210.89Z" fill="#263238" fill-opacity="1.000000" fill-rule="nonzero"/>
		<path d="M256.45 250.56L265.68 260.04L261.07 248.54" stroke="#FFFFFF" stroke-opacity="1.000000" stroke-width="0.750000" stroke-linejoin="round" stroke-linecap="round"/>
		<path d="M249.97 269.26C249.97 269.26 243.23 252.59 245.22 247.41C247.22 242.22 280.28 216.95 280.28 216.95C280.28 216.95 296.75 211.27 307.98 213.54" stroke="#FFFFFF" stroke-opacity="1.000000" stroke-width="0.750000" stroke-linejoin="round" stroke-linecap="round"/>
		<path d="M298.87 210.51C298.87 210.51 304.61 207.73 313.09 210.89" stroke="#FFFFFF" stroke-opacity="1.000000" stroke-width="0.750000" stroke-linejoin="round" stroke-linecap="round"/>
		<path d="M275.67 314.88C275.67 314.88 272.67 318.17 269.68 321.32C266.68 324.36 262.82 325.24 264.19 326C265.56 326.88 267.81 327.64 271.92 326.25C276.04 324.86 281.28 320.19 281.28 320.19L282.15 321.58L286.77 319.05L282.4 312.61L275.67 314.88Z" fill="#263238" fill-opacity="1.000000" fill-rule="nonzero"/>
		<path d="M258.82 100.2C254.71 95.77 247.35 93.12 241.36 94.13C235.49 95.27 233.87 103.23 232.75 108.16L231.75 112.58L231.88 115.99L230 123.19C229.75 124.08 230.38 125.09 231.38 125.22L233.5 125.47C233.87 127.87 236.24 132.55 236.49 134.19C237.74 140.5 241.86 140.13 244.48 139.12C245.6 138.74 247.47 137.47 249.22 135.96L255.45 141.26L266.56 129.01L261.82 122.06C261.82 122.06 263.19 104.87 258.82 100.2Z" fill="#FFFFFF" fill-opacity="1.000000" fill-rule="nonzero"/>
		<path d="M241.36 94.13C235.49 95.27 233.87 103.23 232.75 108.16L231.75 112.58L231.88 115.99L230 123.19C229.75 124.08 230.38 125.09 231.38 125.22L233.5 125.47C233.87 127.87 236.24 132.55 236.49 134.19C237.74 140.5 241.86 140.13 244.48 139.12C245.6 138.74 247.47 137.47 249.22 135.96L255.45 141.26L266.56 129.01L261.82 122.06C261.82 122.06 263.19 104.87 258.82 100.2C254.71 95.77 247.35 93.12 241.36 94.13Z" stroke="#263238" stroke-opacity="1.000000" stroke-width="1.000000" stroke-linejoin="round"/>
		<path d="M236.12 117.76C236.24 118.77 236.12 119.66 235.74 119.66C235.37 119.78 234.87 119.03 234.74 118.01C234.62 117 234.74 116.12 235.12 116.12C235.49 115.99 235.99 116.75 236.12 117.76Z" fill="#263238" fill-opacity="1.000000" fill-rule="nonzero"/>
		<path d="M233.12 113.84C233.12 113.84 235.74 111.57 237.74 114.48" stroke="#263238" stroke-opacity="1.000000" stroke-width="1.000000" stroke-linejoin="round" stroke-linecap="round"/>
		<path d="M242.48 106.77C242.48 106.77 239.11 110.81 240.36 112.2C241.61 113.72 245.72 117 245.72 117C245.72 117 248.59 111.7 252.83 113.84C256.95 115.99 253.71 121.05 255.08 123.07C256.58 125.22 261.57 122.06 261.94 120.92C262.32 119.91 269.8 104.49 270.3 98.81C270.68 93.12 255.33 87.44 248.72 86.17C242.11 84.91 237.12 87.81 238.36 86.55C239.61 85.29 241.73 81.88 237.74 81.5C233.75 81.12 228.63 87.18 228.63 90.72C228.63 94.26 232.12 94.51 232.12 94.51C232.12 94.51 222.14 91.98 224.89 97.92C227.63 103.86 232.12 103.61 236.37 103.86C240.36 104.24 242.48 106.77 242.48 106.77Z" fill="#263238" fill-opacity="1.000000" fill-rule="nonzero"/>
		<path d="M250.09 114.6L249.97 114.6C249.34 114.48 248.84 113.84 248.84 113.21L250.34 100.2C250.46 99.57 250.96 99.06 251.71 99.06C252.34 99.19 252.83 99.82 252.83 100.45L251.34 113.47C251.34 114.1 250.71 114.6 250.09 114.6Z" fill="#FFFFFF" fill-opacity="1.000000" fill-rule="nonzero"/>
		<path d="M249.97 114.6C249.34 114.48 248.84 113.84 248.84 113.21L250.34 100.2C250.46 99.57 250.96 99.06 251.71 99.06C252.34 99.19 252.83 99.82 252.83 100.45L251.34 113.47C251.34 114.1 250.71 114.6 250.09 114.6L249.97 114.6Z" stroke="#263238" stroke-opacity="1.000000" stroke-width="1.000000"/>
		<path d="M249.59 126.86C246.47 126.86 243.85 124.21 243.85 121.05L243.85 115.61C243.85 112.45 246.47 109.8 249.59 109.8C252.71 109.8 255.33 112.45 255.33 115.61L255.33 121.05C255.33 124.21 252.71 126.86 249.59 126.86Z" fill="#FFFFFF" fill-opacity="1.000000" fill-rule="nonzero"/>
		<path d="M243.85 121.05L243.85 115.61C243.85 112.45 246.47 109.8 249.59 109.8C252.71 109.8 255.33 112.45 255.33 115.61L255.33 121.05C255.33 124.21 252.71 126.86 249.59 126.86C246.47 126.86 243.85 124.21 243.85 121.05Z" stroke="#263238" stroke-opacity="1.000000" stroke-width="1.000000"/>
		<path d="M250.96 87.31L249.09 100.7C248.84 102.09 249.84 103.48 251.34 103.61L251.46 103.61C252.83 103.74 254.08 102.72 254.33 101.33L255.95 87.81C256.08 86.42 255.21 85.16 253.71 84.91C252.46 85.03 251.21 85.92 250.96 87.31Z" fill="#FFFFFF" fill-opacity="1.000000" fill-rule="nonzero"/>
		<path d="M249.09 100.7C248.84 102.09 249.84 103.48 251.34 103.61L251.46 103.61C252.83 103.74 254.08 102.72 254.33 101.33L255.95 87.81C256.08 86.42 255.21 85.16 253.71 84.91C252.46 85.03 251.21 85.92 250.96 87.31L249.09 100.7Z" stroke="#263238" stroke-opacity="1.000000" stroke-width="1.000000"/>
		<path d="M268.18 124.08C268.18 124.08 248.22 142.4 248.47 145.43C248.72 148.47 248.09 162.11 255.58 177.4C262.94 192.69 271.92 205.58 275.17 211.39C278.41 217.21 288.02 212.91 288.02 212.91C288.02 212.91 308.23 205.71 314.84 199.39C321.45 192.94 314.84 181.32 314.84 181.32C314.84 181.32 290.51 146.07 282.53 137.35C274.54 128.75 268.18 124.08 268.18 124.08Z" fill="#BAEF00" fill-opacity="1.000000" fill-rule="nonzero"/>
		<path d="M248.47 145.43C248.72 148.47 248.09 162.11 255.58 177.4C262.94 192.69 271.92 205.58 275.17 211.39C278.41 217.21 288.02 212.91 288.02 212.91C288.02 212.91 308.23 205.71 314.84 199.39C321.45 192.94 314.84 181.32 314.84 181.32C314.84 181.32 290.51 146.07 282.53 137.35C274.54 128.75 268.18 124.08 268.18 124.08C268.18 124.08 248.22 142.4 248.47 145.43Z" stroke="#263238" stroke-opacity="1.000000" stroke-width="1.000000" stroke-linejoin="round"/>
		<path d="M248.09 148.09C248.09 148.09 252.21 144.42 255.45 141.39C258.7 138.36 275.42 134.95 279.53 135.83C283.65 136.72 284.77 140.5 285.52 140.25C286.39 140 286.77 134.57 282.4 127.24C278.04 119.91 271.42 116.75 267.81 119.03C264.31 121.3 255.58 132.55 251.84 137.09C248.09 141.77 246.6 144.42 248.09 148.09Z" fill="#BAEF00" fill-opacity="1.000000" fill-rule="nonzero"/>
		<path d="M255.45 141.39C258.7 138.36 275.42 134.95 279.53 135.83C283.65 136.72 284.77 140.5 285.52 140.25C286.39 140 286.77 134.57 282.4 127.24C278.04 119.91 271.42 116.75 267.81 119.03C264.31 121.3 255.58 132.55 251.84 137.09C248.09 141.77 246.6 144.42 248.09 148.09C248.09 148.09 252.21 144.42 255.45 141.39Z" stroke="#263238" stroke-opacity="1.000000" stroke-width="1.000000" stroke-linejoin="round"/>
		<path d="M266.43 172.22C266.43 172.22 279.78 173.36 289.14 171.46" stroke="#263238" stroke-opacity="1.000000" stroke-width="1.000000" stroke-linejoin="round" stroke-linecap="round"/>
		<path d="M261.19 173.36C261.19 173.36 273.79 181.32 286.89 182.08" stroke="#263238" stroke-opacity="1.000000" stroke-width="1.000000" stroke-linejoin="round" stroke-linecap="round"/>
		<path d="M272.92 140C272.92 140 266.06 137.47 260.57 140.5C255.08 143.54 233 175.76 233 175.76L244.23 187.89L278.66 165.78M273.07 139.54L273.09 139.53C273.36 139.63 273.49 139.91 273.39 140.17C273.29 140.44 273.01 140.57 272.75 140.47L272.74 140.44L273.07 139.54ZM278.38 165.38L278.39 165.36C278.63 165.21 278.93 165.27 279.08 165.51C279.23 165.74 279.17 166.05 278.93 166.2L278.9 166.19L278.38 165.38Z" fill="#BAEF00" fill-opacity="1.000000" fill-rule="nonzero"/>
		<path d="M272.92 140C272.92 140 266.06 137.47 260.57 140.5C255.08 143.54 233 175.76 233 175.76L244.23 187.89L278.66 165.78" stroke="#263238" stroke-opacity="1.000000" stroke-width="1.000000" stroke-linejoin="round" stroke-linecap="round"/>
		<path d="M233 172.85C233 172.85 229.26 176.27 229.38 177.4C229.5 178.54 239.98 189.91 241.23 190.67C242.48 191.43 246.6 188.27 246.47 186.75C246.35 185.24 234.37 172.98 234.37 172.98C234.37 172.98 233.75 171.84 233 172.85Z" fill="#C6FF00" fill-opacity="1.000000" fill-rule="nonzero"/>
		<path d="M229.38 177.4C229.5 178.54 239.98 189.91 241.23 190.67C242.48 191.43 246.6 188.27 246.47 186.75C246.35 185.24 234.37 172.98 234.37 172.98C234.37 172.98 233.75 171.84 233 172.85C233 172.85 229.26 176.27 229.38 177.4Z" stroke="#263238" stroke-opacity="1.000000" stroke-width="1.000000" stroke-linejoin="round"/>
		<path d="M1.94 378.31L490.25 378.31C491.75 378.31 492.87 377.05 492.87 375.66C492.87 374.14 491.75 373.01 490.25 373.01L1.94 373.01C0.45 373.01 -0.68 374.27 -0.68 375.66C-0.68 377.18 0.45 378.31 1.94 378.31Z" fill="#263238" fill-opacity="1.000000" fill-rule="nonzero"/>
	</g>
</svg>
