<svg width="57.000000" height="223.000000" viewBox="0 0 57 223" fill="none" xmlns="http://www.w3.org/2000/svg" xmlns:xlink="http://www.w3.org/1999/xlink">
	<desc>
			Created with Pixso.
	</desc>
	<defs/>
	<path id="Vector" d="M0.39 222.27L56.15 222.27C55.03 215.32 50.67 216.58 50.17 205.84C49.92 200.41 54.78 193.84 54.41 186.76C54.03 180.95 48.42 175.01 47.92 168.31C47.55 162.25 52.41 155.55 51.91 149.11C51.41 142.92 45.67 137.1 45.18 130.66C44.68 124.47 49.42 117.64 48.92 111.45C48.42 105.13 42.56 99.32 41.93 93.13C41.31 86.81 45.92 79.86 45.18 73.8C44.43 67.35 38.44 61.79 37.57 55.73C36.69 49.03 40.93 41.96 39.94 36.27C38.69 29.19 32.2 24.14 30.95 18.96C28.46 9.35 28.71 0 25.71 -0.63C22.47 -1.26 21.85 7.84 19.35 18.07C18.1 23.25 11.86 28.43 10.74 35.38C9.87 41.07 14.36 48.02 13.61 54.59C12.99 60.53 7.12 66.22 6.5 72.66C6 78.73 10.74 85.42 10.24 91.74C9.74 97.93 4.13 103.74 3.63 110.06C3.26 116.25 8.12 122.82 7.87 129.02C7.5 135.33 1.88 141.27 1.63 147.46C1.39 153.91 6.38 160.35 6.13 166.42C5.88 172.99 0.39 179.05 0.14 184.87C-0.11 191.94 5 198.39 4.88 203.69C4.5 215.32 -0.74 212.92 -0.86 222.27L0.39 222.27Z" fill="#BAEF00" fill-opacity="1.000000" fill-rule="nonzero"/>
</svg>
